<svg width="550" height="644" viewBox="0 0 550 644" fill="none" xmlns="http://www.w3.org/2000/svg">
<path fill-rule="evenodd" clip-rule="evenodd" d="M186.904 22.7728C237.5 55.21 232.382 131.003 262.037 183.273C274.802 205.774 287.581 230.915 311.103 241.69C386.838 276.384 513.565 236.693 546.065 313.384C571.799 374.109 452.192 405.575 391.546 431.515C349.892 449.331 289.485 403.966 258.041 436.577C206.478 490.054 261.135 640.71 186.904 643.753C114.186 646.733 143.432 508.33 112.317 442.55C101.351 419.368 78.7678 405.316 64.15 384.244C48.284 361.372 30.9483 339.974 22.7154 313.384C12.4438 280.21 10.6308 246.409 10.7199 211.682C10.8782 150.026 -18.6136 75.4033 23.4423 30.3098C61.2858 -10.2672 140.191 -7.17451 186.904 22.7728Z" fill="#14C285"/>
</svg>
