<svg width="40" height="40" viewBox="0 0 40 40" fill="none" xmlns="http://www.w3.org/2000/svg">
<path d="M19.9995 40C18.9252 40 17.8465 39.9143 16.7957 39.744C12.1571 38.997 7.90581 36.6126 4.82674 33.0304C1.71429 29.4092 0 24.7817 0 19.9994C0 8.97114 8.97227 0 19.9995 0C31.0266 0 40 8.97225 40 19.9994C40 24.8551 38.2389 29.5372 35.0396 33.1829C31.8715 36.7951 27.519 39.1473 22.7835 39.8074C21.8673 39.9354 20.9301 40 19.9995 40ZM19.9995 1.33582C9.70808 1.33582 1.33582 9.70807 1.33582 19.9994C1.33582 29.2133 7.92698 36.9632 17.0083 38.4248C18.8395 38.7198 20.7564 38.741 22.5987 38.4838C31.7568 37.2081 38.663 29.2611 38.663 19.9994C38.663 9.70807 30.2908 1.33582 19.9983 1.33582H19.9995Z" fill="#ECFFF5"/>
<path d="M26.0528 8.39648H13.9447C10.5996 8.39648 7.87891 11.1171 7.87891 14.4622V25.5395C7.87891 28.8846 10.5996 31.6052 13.9447 31.6052H26.0528C29.3979 31.6052 32.1185 28.8846 32.1185 25.5395V14.4622C32.1185 11.1171 29.3979 8.39648 26.0528 8.39648ZM10.0185 14.4622C10.0185 12.2971 11.7795 10.536 13.9447 10.536H26.0528C28.2179 10.536 29.979 12.2971 29.979 14.4622V25.5395C29.979 27.7046 28.2179 29.4657 26.0528 29.4657H13.9447C11.7795 29.4657 10.0185 27.7046 10.0185 25.5395V14.4622Z" fill="#ECFFF5"/>
<path d="M20.0002 25.6448C23.1115 25.6448 25.6429 23.1134 25.6429 20.0021C25.6429 16.8908 23.1115 14.3594 20.0002 14.3594C16.8888 14.3594 14.3574 16.8908 14.3574 20.0021C14.3574 23.1134 16.8888 25.6448 20.0002 25.6448ZM20.0002 16.5C21.9316 16.5 23.5023 18.0707 23.5023 20.0021C23.5023 21.9335 21.9316 23.5042 20.0002 23.5042C18.0688 23.5042 16.4981 21.9335 16.4981 20.0021C16.4981 18.0707 18.0688 16.5 20.0002 16.5Z" fill="#ECFFF5"/>
<path d="M26.1651 15.2697C27.0033 15.2697 27.6857 14.5874 27.6857 13.7491C27.6857 12.9109 27.0033 12.2285 26.1651 12.2285C25.3269 12.2285 24.6445 12.9109 24.6445 13.7491C24.6445 14.5874 25.3269 15.2697 26.1651 15.2697Z" fill="#ECFFF5"/>
</svg>
